<mxfile host="app.diagrams.net" agent="Mozilla/5.0 (Windows NT 10.0; Win64; x64) AppleWebKit/537.36 (KHTML, like Gecko) Chrome/129.0.0.0 Safari/537.36" version="24.7.17">
  <diagram name="Page-1" id="2YBvvXClWsGukQMizWep">
    <mxGraphModel grid="1" page="1" gridSize="10" guides="1" tooltips="1" connect="1" arrows="1" fold="1" pageScale="1" pageWidth="850" pageHeight="1100" math="0" shadow="0">
      <root>
        <mxCell id="0" />
        <mxCell id="1" parent="0" />
        <mxCell id="aM9ryv3xv72pqoxQDRHE-1" value="Mahasiswa" style="shape=umlLifeline;perimeter=lifelinePerimeter;whiteSpace=wrap;html=1;container=0;dropTarget=0;collapsible=0;recursiveResize=0;outlineConnect=0;portConstraint=eastwest;newEdgeStyle={&quot;edgeStyle&quot;:&quot;elbowEdgeStyle&quot;,&quot;elbow&quot;:&quot;vertical&quot;,&quot;curved&quot;:0,&quot;rounded&quot;:0};" vertex="1" parent="1">
          <mxGeometry x="20" y="40" width="100" height="360" as="geometry" />
        </mxCell>
        <mxCell id="aM9ryv3xv72pqoxQDRHE-5" value="Sistem_Pendaftaran" style="shape=umlLifeline;perimeter=lifelinePerimeter;whiteSpace=wrap;html=1;container=0;dropTarget=0;collapsible=0;recursiveResize=0;outlineConnect=0;portConstraint=eastwest;newEdgeStyle={&quot;edgeStyle&quot;:&quot;elbowEdgeStyle&quot;,&quot;elbow&quot;:&quot;vertical&quot;,&quot;curved&quot;:0,&quot;rounded&quot;:0};" vertex="1" parent="1">
          <mxGeometry x="240" y="40" width="120" height="360" as="geometry" />
        </mxCell>
        <mxCell id="aM9ryv3xv72pqoxQDRHE-6" value="" style="html=1;points=[];perimeter=orthogonalPerimeter;outlineConnect=0;targetShapes=umlLifeline;portConstraint=eastwest;newEdgeStyle={&quot;edgeStyle&quot;:&quot;elbowEdgeStyle&quot;,&quot;elbow&quot;:&quot;vertical&quot;,&quot;curved&quot;:0,&quot;rounded&quot;:0};" vertex="1" parent="aM9ryv3xv72pqoxQDRHE-5">
          <mxGeometry x="55" y="80" width="10" height="30" as="geometry" />
        </mxCell>
        <mxCell id="RJQbCOtmX7wxh3dsDeGT-8" value="" style="html=1;points=[];perimeter=orthogonalPerimeter;outlineConnect=0;targetShapes=umlLifeline;portConstraint=eastwest;newEdgeStyle={&quot;edgeStyle&quot;:&quot;elbowEdgeStyle&quot;,&quot;elbow&quot;:&quot;vertical&quot;,&quot;curved&quot;:0,&quot;rounded&quot;:0};" vertex="1" parent="aM9ryv3xv72pqoxQDRHE-5">
          <mxGeometry x="55" y="310" width="10" height="30" as="geometry" />
        </mxCell>
        <mxCell id="aM9ryv3xv72pqoxQDRHE-7" value="Mengisi Formulir Pendaftaran" style="html=1;verticalAlign=bottom;endArrow=block;edgeStyle=elbowEdgeStyle;elbow=vertical;curved=0;rounded=0;" edge="1" parent="1" source="aM9ryv3xv72pqoxQDRHE-1" target="aM9ryv3xv72pqoxQDRHE-6">
          <mxGeometry relative="1" as="geometry">
            <mxPoint x="75" y="120" as="sourcePoint" />
            <Array as="points">
              <mxPoint x="180" y="120" />
            </Array>
          </mxGeometry>
        </mxCell>
        <mxCell id="aM9ryv3xv72pqoxQDRHE-8" value="Pendaftaran Berhasil" style="html=1;verticalAlign=bottom;endArrow=open;dashed=1;endSize=8;edgeStyle=elbowEdgeStyle;elbow=vertical;curved=0;rounded=0;" edge="1" parent="1">
          <mxGeometry relative="1" as="geometry">
            <mxPoint x="69.81034482758628" y="280.0013793103449" as="targetPoint" />
            <Array as="points" />
            <mxPoint x="295" y="280.0013793103449" as="sourcePoint" />
          </mxGeometry>
        </mxCell>
        <mxCell id="RJQbCOtmX7wxh3dsDeGT-2" value="return" style="html=1;verticalAlign=bottom;endArrow=open;dashed=1;endSize=8;edgeStyle=elbowEdgeStyle;elbow=vertical;curved=0;rounded=0;" edge="1" parent="1" target="aM9ryv3xv72pqoxQDRHE-1">
          <mxGeometry relative="1" as="geometry">
            <mxPoint x="75" y="150" as="targetPoint" />
            <Array as="points">
              <mxPoint x="185" y="150" />
            </Array>
            <mxPoint x="295" y="150" as="sourcePoint" />
            <mxPoint as="offset" />
          </mxGeometry>
        </mxCell>
        <mxCell id="RJQbCOtmX7wxh3dsDeGT-3" value="Mahasiswa" style="rounded=0;whiteSpace=wrap;html=1;" vertex="1" parent="1">
          <mxGeometry x="20" y="400" width="100" height="40" as="geometry" />
        </mxCell>
        <mxCell id="RJQbCOtmX7wxh3dsDeGT-4" value="" style="html=1;points=[];perimeter=orthogonalPerimeter;outlineConnect=0;targetShapes=umlLifeline;portConstraint=eastwest;newEdgeStyle={&quot;edgeStyle&quot;:&quot;elbowEdgeStyle&quot;,&quot;elbow&quot;:&quot;vertical&quot;,&quot;curved&quot;:0,&quot;rounded&quot;:0};" vertex="1" parent="1">
          <mxGeometry x="295" y="180" width="10" height="100" as="geometry" />
        </mxCell>
        <mxCell id="RJQbCOtmX7wxh3dsDeGT-6" value="Submit Pendaftaran" style="html=1;verticalAlign=bottom;endArrow=block;edgeStyle=elbowEdgeStyle;elbow=vertical;curved=0;rounded=0;" edge="1" parent="1">
          <mxGeometry relative="1" as="geometry">
            <mxPoint x="70" y="180" as="sourcePoint" />
            <Array as="points">
              <mxPoint x="180" y="180" />
            </Array>
            <mxPoint x="295" y="180" as="targetPoint" />
          </mxGeometry>
        </mxCell>
        <mxCell id="RJQbCOtmX7wxh3dsDeGT-7" value="Sistem_Pendaftaran" style="rounded=0;whiteSpace=wrap;html=1;" vertex="1" parent="1">
          <mxGeometry x="240" y="400" width="120" height="40" as="geometry" />
        </mxCell>
        <mxCell id="RJQbCOtmX7wxh3dsDeGT-9" value="Pendaftaran Selesai" style="html=1;verticalAlign=bottom;endArrow=open;dashed=1;endSize=8;edgeStyle=elbowEdgeStyle;elbow=vertical;curved=0;rounded=0;" edge="1" parent="1">
          <mxGeometry relative="1" as="geometry">
            <mxPoint x="69.81034482758628" y="380.0013793103449" as="targetPoint" />
            <Array as="points" />
            <mxPoint x="295" y="380.0013793103449" as="sourcePoint" />
          </mxGeometry>
        </mxCell>
        <mxCell id="RJQbCOtmX7wxh3dsDeGT-10" value="Staf_Registrar" style="shape=umlLifeline;perimeter=lifelinePerimeter;whiteSpace=wrap;html=1;container=0;dropTarget=0;collapsible=0;recursiveResize=0;outlineConnect=0;portConstraint=eastwest;newEdgeStyle={&quot;edgeStyle&quot;:&quot;elbowEdgeStyle&quot;,&quot;elbow&quot;:&quot;vertical&quot;,&quot;curved&quot;:0,&quot;rounded&quot;:0};" vertex="1" parent="1">
          <mxGeometry x="520" y="40" width="120" height="360" as="geometry" />
        </mxCell>
        <mxCell id="RJQbCOtmX7wxh3dsDeGT-11" value="" style="html=1;points=[];perimeter=orthogonalPerimeter;outlineConnect=0;targetShapes=umlLifeline;portConstraint=eastwest;newEdgeStyle={&quot;edgeStyle&quot;:&quot;elbowEdgeStyle&quot;,&quot;elbow&quot;:&quot;vertical&quot;,&quot;curved&quot;:0,&quot;rounded&quot;:0};" vertex="1" parent="RJQbCOtmX7wxh3dsDeGT-10">
          <mxGeometry x="55" y="170" width="10" height="30" as="geometry" />
        </mxCell>
        <mxCell id="RJQbCOtmX7wxh3dsDeGT-13" value="Staf_Registrar" style="rounded=0;whiteSpace=wrap;html=1;" vertex="1" parent="1">
          <mxGeometry x="520" y="400" width="120" height="40" as="geometry" />
        </mxCell>
        <mxCell id="RJQbCOtmX7wxh3dsDeGT-14" value="Verifikasi Data Pendaftaran" style="html=1;verticalAlign=bottom;endArrow=block;edgeStyle=elbowEdgeStyle;elbow=vertical;curved=0;rounded=0;" edge="1" parent="1" target="RJQbCOtmX7wxh3dsDeGT-11">
          <mxGeometry relative="1" as="geometry">
            <mxPoint x="304.9977777777778" y="210" as="sourcePoint" />
            <Array as="points">
              <mxPoint x="464.72" y="210" />
            </Array>
            <mxPoint x="570" y="210" as="targetPoint" />
          </mxGeometry>
        </mxCell>
        <mxCell id="RJQbCOtmX7wxh3dsDeGT-15" value="Status Pendaftaran Diverifikasi" style="html=1;verticalAlign=bottom;endArrow=open;dashed=1;endSize=8;edgeStyle=elbowEdgeStyle;elbow=vertical;curved=0;rounded=0;" edge="1" parent="1" source="RJQbCOtmX7wxh3dsDeGT-10">
          <mxGeometry relative="1" as="geometry">
            <mxPoint x="305.0003448275863" y="240.00137931034487" as="targetPoint" />
            <Array as="points" />
            <mxPoint x="530.19" y="240.00137931034487" as="sourcePoint" />
          </mxGeometry>
        </mxCell>
        <mxCell id="RJQbCOtmX7wxh3dsDeGT-16" value="Sistem_Pembayaran" style="shape=umlLifeline;perimeter=lifelinePerimeter;whiteSpace=wrap;html=1;container=0;dropTarget=0;collapsible=0;recursiveResize=0;outlineConnect=0;portConstraint=eastwest;newEdgeStyle={&quot;edgeStyle&quot;:&quot;elbowEdgeStyle&quot;,&quot;elbow&quot;:&quot;vertical&quot;,&quot;curved&quot;:0,&quot;rounded&quot;:0};" vertex="1" parent="1">
          <mxGeometry x="680" y="40" width="130" height="360" as="geometry" />
        </mxCell>
        <mxCell id="RJQbCOtmX7wxh3dsDeGT-18" value="Sistem_Pembayaran" style="rounded=0;whiteSpace=wrap;html=1;" vertex="1" parent="1">
          <mxGeometry x="680" y="400" width="130" height="40" as="geometry" />
        </mxCell>
        <mxCell id="RJQbCOtmX7wxh3dsDeGT-19" value="Melakukan Pembayaran" style="html=1;verticalAlign=bottom;endArrow=block;edgeStyle=elbowEdgeStyle;elbow=vertical;curved=0;rounded=0;" edge="1" parent="1" target="RJQbCOtmX7wxh3dsDeGT-16">
          <mxGeometry x="0.1046" relative="1" as="geometry">
            <mxPoint x="69.44736842105272" y="309.9999999999999" as="sourcePoint" />
            <Array as="points">
              <mxPoint x="639.72" y="310" />
            </Array>
            <mxPoint x="740" y="310" as="targetPoint" />
            <mxPoint as="offset" />
          </mxGeometry>
        </mxCell>
        <mxCell id="RJQbCOtmX7wxh3dsDeGT-22" value="Konfirmasi Pembayaran" style="html=1;verticalAlign=bottom;endArrow=block;edgeStyle=elbowEdgeStyle;elbow=vertical;curved=0;rounded=0;" edge="1" parent="1" source="RJQbCOtmX7wxh3dsDeGT-16" target="RJQbCOtmX7wxh3dsDeGT-8">
          <mxGeometry x="-0.1387" relative="1" as="geometry">
            <mxPoint x="735.0500000000002" y="350" as="sourcePoint" />
            <Array as="points">
              <mxPoint x="470.27000000000004" y="350" />
            </Array>
            <mxPoint x="310" y="350" as="targetPoint" />
            <mxPoint as="offset" />
          </mxGeometry>
        </mxCell>
      </root>
    </mxGraphModel>
  </diagram>
</mxfile>
